<?xml version="1.0" encoding="UTF-8"?>
<!DOCTYPE svg PUBLIC "-//W3C//DTD SVG 1.1//EN" "http://www.w3.org/Graphics/SVG/1.1/DTD/svg11.dtd">
<!-- Creator: CorelDRAW -->
<svg xmlns="http://www.w3.org/2000/svg" xml:space="preserve" width="44.0266mm" height="44.0266mm" version="1.1" style="shape-rendering:geometricPrecision; text-rendering:geometricPrecision; image-rendering:optimizeQuality; fill-rule:evenodd; clip-rule:evenodd"
viewBox="0 0 4402.66 4402.66"
 xmlns:xlink="http://www.w3.org/1999/xlink"
 xmlns:xodm="http://www.corel.com/coreldraw/odm/2003">
 <defs>
  <style type="text/css">
   <![CDATA[
    .fil0 {fill:#FEFEFE}
    .fil1 {fill:#3A0941}
    .fil2 {fill:#3A0941;fill-rule:nonzero}
   ]]>
  </style>
 </defs>
 <g id="Camada_x0020_1">
  <metadata id="CorelCorpID_0Corel-Layer"/>
  <rect class="fil0" width="4402.66" height="4402.66"/>
  <path class="fil1" d="M2580.89 1832.54c-27.92,-8.64 -54.78,-17.29 -80.92,-24.87 -59.61,-17.3 -182.73,82.04 -225.47,52.09 -39.97,-28.02 58.82,-599.71 5.62,-956.63 -56.22,-377.2 -261.64,-504.04 -318.49,-552.63 -213.82,-182.79 -491.25,-155.65 -533.82,186.53 -23.64,189.98 -63.82,198.86 -81.77,373.63 -10.54,102.71 -118.85,241.87 -145.85,382.4 -33.38,173.73 11.22,403.62 -123.5,561.47 -87.51,102.54 -228.71,341.39 -379.69,423.45 -160.73,87.35 -332.16,-15.35 -440.01,74.27 -119.18,99.03 -228.74,231.51 2.11,227.89 110.17,-1.73 256.82,-91.6 408.69,-104.74 189.58,-16.4 340.51,172.52 552.82,200.56 146.91,19.4 259.26,-50.87 330.66,-23.58 42.83,16.38 10.9,105.75 40.48,111.66 53.97,10.77 82.05,-34 117.42,-4.08 56.18,47.51 -30.62,299.63 19.41,410.1 22.33,49.31 71.99,120.14 99.4,226.62 38.13,148.09 15.68,515.6 68.53,676.53 36.93,112.47 99.78,114.01 142.97,40.07 33.6,-57.51 53.47,-151.17 57.46,-163.63 44.37,-138.36 97.72,-317.4 119.64,-383.86 44.3,-134.32 169.99,-214.58 264.75,-333.28 63.99,-80.17 93.54,-178.02 166.59,-235.48 71.88,-56.54 163.89,41.06 252.43,40.45 187.9,-1.29 373.41,-37.89 410.58,-68.79 574.23,-477.41 594.21,-267.41 802.44,-312.9 374.05,-81.7 7.15,-509.17 -65.73,-534.82 -95.37,-33.56 -732.46,-262.53 -1345.46,-74.75 -15.51,4.75 -24.93,-20.79 -36.63,-32.13 -69.42,-67.31 -20.39,-161.67 -84.66,-181.55z"/>
  <g>
   <path class="fil2" d="M2627.18 1183.5l-35.8 15.42c-4.25,-9.88 0.31,-21.36 10.19,-25.61 9.88,-4.25 21.36,0.31 25.61,10.19zm-20.7 531.35l-0.01 0.01 8.13 -14.63 7.38 -14.87 6.67 -15.12 5.97 -15.35 5.3 -15.56 4.65 -15.77 4 -15.94 3.37 -16.12 2.77 -16.28 2.18 -16.41 1.6 -16.54 1.05 -16.65 0.51 -16.73 -0.01 -16.81 -0.51 -16.86 -1 -16.89 -1.47 -16.89 -1.93 -16.91 -2.35 -16.88 -2.76 -16.83 -3.17 -16.78 -3.54 -16.7 -3.9 -16.6 -4.24 -16.48 -4.55 -16.34 -4.86 -16.19 -5.14 -16.02 -5.4 -15.82 -5.65 -15.6 -5.86 -15.39 -6.08 -15.12 -6.25 -14.86 35.8 -15.42 6.51 15.46 6.32 15.74 6.1 16.01 5.89 16.26 5.62 16.5 5.36 16.7 5.08 16.91 4.77 17.1 4.44 17.26 4.08 17.4 3.72 17.54 3.33 17.66 2.92 17.75 2.49 17.84 2.03 17.91 1.57 17.95 1.06 17.99 0.55 18 0.01 17.99 -0.55 17.97 -1.13 17.93 -1.74 17.88 -2.36 17.81 -3.01 17.7 -3.69 17.6 -4.38 17.46 -5.09 17.31 -5.84 17.12 -6.59 16.93 -7.37 16.72 -8.18 16.47 -8.99 16.19 -0.01 0.01 -33.62 -19.72zm-0.01 0.01l33.64 19.7c-5.44,9.28 -17.39,12.4 -26.67,6.96 -9.28,-5.44 -12.41,-17.38 -6.97,-26.66zm-84.95 175.1l-2.58 -6.54 -1.12 -6.39 -0.06 -6 0.64 -5.67 1.17 -5.47 1.56 -5.39 1.92 -5.39 2.22 -5.45 2.51 -5.51 2.76 -5.59 2.99 -5.68 3.2 -5.75 3.38 -5.85 3.54 -5.89 3.68 -5.95 3.8 -5.97 3.88 -5.99 3.95 -5.98 3.98 -5.95 4.01 -5.91 3.98 -5.84 3.96 -5.75 3.9 -5.65 3.8 -5.5 3.68 -5.35 3.56 -5.17 3.37 -4.95 3.18 -4.71 2.94 -4.47 2.7 -4.16 2.39 -3.8 2.07 -3.44 33.62 19.72 -2.49 4.14 -2.73 4.36 -2.94 4.54 -3.14 4.73 -3.32 4.95 -3.49 5.11 -3.6 5.25 -3.72 5.39 -3.82 5.52 -3.86 5.59 -3.9 5.69 -3.92 5.72 -3.89 5.75 -3.86 5.77 -3.79 5.74 -3.7 5.71 -3.58 5.63 -3.42 5.53 -3.26 5.41 -3.04 5.25 -2.82 5.09 -2.55 4.84 -2.26 4.59 -1.95 4.27 -1.6 3.91 -1.24 3.47 -0.86 2.95 -0.49 2.29 -0.18 1.49 -0.02 0.5 -0.12 -0.61 -0.62 -1.5 -34.4 18.32zm0 0l34.4 -18.32c5.05,9.49 1.45,21.31 -8.04,26.36 -9.49,5.05 -21.31,1.45 -26.36,-8.04z"/>
  </g>
  <g>
   <path class="fil2" d="M3189.92 1664.96c10.46,2.5 16.91,13.03 14.41,23.49 -2.5,10.46 -13.03,16.91 -23.49,14.41l9.08 -37.9zm-519.99 111.29l-25.18 -29.76 0 0 14.43 -11.64 14.83 -10.87 15.19 -10.11 15.55 -9.41 15.9 -8.68 16.16 -7.97 16.47 -7.31 16.7 -6.64 16.93 -5.99 17.13 -5.38 17.33 -4.77 17.47 -4.18 17.61 -3.61 17.74 -3.07 17.82 -2.53 17.9 -2.03 17.96 -1.54 17.98 -1.06 18.01 -0.6 17.99 -0.16 17.96 0.26 17.93 0.66 17.85 1.06 17.76 1.41 17.66 1.78 17.53 2.1 17.38 2.42 17.22 2.74 17.02 3.01 16.82 3.27 16.59 3.54 16.35 3.77 -9.08 37.9 -15.71 -3.61 -15.95 -3.4 -16.14 -3.15 -16.36 -2.89 -16.5 -2.62 -16.66 -2.32 -16.79 -2.02 -16.88 -1.7 -16.96 -1.35 -17.03 -1 -17.05 -0.64 -17.06 -0.24 -17.07 0.16 -17.03 0.56 -16.98 1 -16.9 1.44 -16.82 1.91 -16.7 2.37 -16.56 2.87 -16.39 3.37 -16.23 3.88 -16.01 4.41 -15.81 4.96 -15.57 5.51 -15.3 6.08 -15.03 6.67 -14.74 7.27 -14.42 7.88 -14.09 8.51 -13.77 9.17 -13.39 9.81 -13.01 10.5 0 0zm0 0c-8.21,6.95 -20.52,5.92 -27.47,-2.29 -6.95,-8.21 -5.92,-20.52 2.29,-27.47l25.18 29.76zm-157.99 113.67l12.16 -37.04 -1.59 -0.34 -0.61 -0.02 0.49 -0.1 1.43 -0.43 2.18 -0.89 2.76 -1.35 3.2 -1.81 3.58 -2.25 3.88 -2.64 4.12 -3.02 4.35 -3.36 4.53 -3.64 4.65 -3.9 4.77 -4.12 4.87 -4.32 4.93 -4.49 4.98 -4.61 5.01 -4.72 5.03 -4.8 5 -4.82 4.97 -4.84 4.92 -4.81 4.86 -4.77 4.78 -4.7 4.68 -4.59 4.58 -4.46 4.42 -4.28 4.29 -4.12 4.14 -3.92 3.98 -3.67 3.82 -3.44 3.65 -3.16 25.18 29.76 -3.03 2.62 -3.36 3.02 -3.62 3.35 -3.88 3.66 -4.11 3.94 -4.32 4.2 -4.48 4.36 -4.62 4.55 -4.78 4.68 -4.88 4.81 -5 4.89 -5.07 4.92 -5.14 4.96 -5.19 4.94 -5.21 4.92 -5.24 4.85 -5.23 4.75 -5.23 4.66 -5.21 4.5 -5.17 4.32 -5.13 4.14 -5.07 3.9 -5.04 3.68 -5 3.42 -4.98 3.13 -5 2.81 -5.04 2.47 -5.2 2.07 -5.47 1.61 -5.91 0.96 -6.49 0 -6.89 -1.42zm0 0c-10.22,-3.35 -15.79,-14.38 -12.44,-24.6 3.35,-10.22 14.38,-15.79 24.6,-12.44l-12.16 37.04z"/>
  </g>
 </g>
</svg>
